<?xml version="1.0" encoding="UTF-8" standalone="no"?><svg xmlns="http://www.w3.org/2000/svg" xmlns:xlink="http://www.w3.org/1999/xlink" contentStyleType="text/css" height="950px" preserveAspectRatio="none" style="width:1735px;height:950px;background:#FFFFFF;" version="1.1" viewBox="0 0 1735 950" width="1735px" zoomAndPan="magnify"><defs/><g><ellipse cx="391" cy="48.6982" fill="#222222" rx="10" ry="10" style="stroke:#222222;stroke-width:1.0;"/><rect fill="#F1F1F1" height="47.9375" rx="12.5" ry="12.5" style="stroke:#181818;stroke-width:0.5;" width="309" x="236.5" y="78.6982"/><text fill="#000000" font-family="sans-serif" font-size="12" lengthAdjust="spacing" textLength="257" x="246.5" y="99.8369">Обращение на стойку Администратора</text><text fill="#000000" font-family="sans-serif" font-size="12" lengthAdjust="spacing" textLength="289" x="246.5" y="113.8057">или звонок на контактный телефон клиники</text><ellipse cx="391" cy="253.4404" fill="none" rx="10" ry="10" style="stroke:#222222;stroke-width:1.5;"/><line style="stroke:#222222;stroke-width:2.5;" x1="384.8128" x2="397.1872" y1="247.2532" y2="259.6276"/><line style="stroke:#222222;stroke-width:2.5;" x1="397.1872" x2="384.8128" y1="247.2532" y2="259.6276"/><polygon fill="#F1F1F1" points="265,195.0381,517,195.0381,529,207.0381,517,219.0381,265,219.0381,253,207.0381,265,195.0381" style="stroke:#181818;stroke-width:0.5;"/><text fill="#000000" font-family="sans-serif" font-size="11" lengthAdjust="spacing" textLength="22" x="395" y="229.2485">нет</text><text fill="#000000" font-family="sans-serif" font-size="11" lengthAdjust="spacing" textLength="252" x="265" y="210.8462">Готов ли ждать пациент своей очереди?</text><text fill="#000000" font-family="sans-serif" font-size="11" lengthAdjust="spacing" textLength="16" x="529" y="204.4438">да</text><rect fill="#F1F1F1" height="33.9688" rx="12.5" ry="12.5" style="stroke:#181818;stroke-width:0.5;" width="189" x="296.5" y="305.4404"/><text fill="#000000" font-family="sans-serif" font-size="12" lengthAdjust="spacing" textLength="169" x="306.5" y="326.5791">ожидание своей очереди</text><polygon fill="#F1F1F1" points="309,359.4092,473,359.4092,485,371.4092,473,383.4092,309,383.4092,297,371.4092,309,359.4092" style="stroke:#181818;stroke-width:0.5;"/><text fill="#000000" font-family="sans-serif" font-size="11" lengthAdjust="spacing" textLength="164" x="309" y="375.2173">Дождался своей очереди?</text><text fill="#000000" font-family="sans-serif" font-size="11" lengthAdjust="spacing" textLength="16" x="281" y="368.8149">да</text><text fill="#000000" font-family="sans-serif" font-size="11" lengthAdjust="spacing" textLength="22" x="485" y="368.8149">нет</text><rect fill="#F1F1F1" height="33.9688" rx="12.5" ry="12.5" style="stroke:#181818;stroke-width:0.5;" width="224" x="175" y="393.4092"/><text fill="#000000" font-family="sans-serif" font-size="12" lengthAdjust="spacing" textLength="204" x="185" y="414.5479">Запрос на медицинские услуги</text><ellipse cx="495" cy="403.4092" fill="none" rx="10" ry="10" style="stroke:#222222;stroke-width:1.5;"/><line style="stroke:#222222;stroke-width:2.5;" x1="488.8128" x2="501.1872" y1="397.222" y2="409.5964"/><line style="stroke:#222222;stroke-width:2.5;" x1="501.1872" x2="488.8128" y1="397.222" y2="409.5964"/><polygon fill="#F1F1F1" points="48,717.8936,229,717.8936,241,729.8936,229,741.8936,48,741.8936,36,729.8936,48,717.8936" style="stroke:#181818;stroke-width:0.5;"/><text fill="#000000" font-family="sans-serif" font-size="11" lengthAdjust="spacing" textLength="181" x="48" y="733.7017">Стоимость услуг устраивает?</text><text fill="#000000" font-family="sans-serif" font-size="11" lengthAdjust="spacing" textLength="16" x="20" y="727.2993">да</text><text fill="#000000" font-family="sans-serif" font-size="11" lengthAdjust="spacing" textLength="22" x="241" y="727.2993">нет</text><ellipse cx="306.75" cy="820.2959" fill="none" rx="10" ry="10" style="stroke:#222222;stroke-width:1.5;"/><line style="stroke:#222222;stroke-width:2.5;" x1="300.5628" x2="312.9372" y1="814.1087" y2="826.4831"/><line style="stroke:#222222;stroke-width:2.5;" x1="312.9372" x2="300.5628" y1="814.1087" y2="826.4831"/><polygon fill="#F1F1F1" points="189.25,761.8936,424.25,761.8936,436.25,773.8936,424.25,785.8936,189.25,785.8936,177.25,773.8936,189.25,761.8936" style="stroke:#181818;stroke-width:0.5;"/><text fill="#000000" font-family="sans-serif" font-size="11" lengthAdjust="spacing" textLength="22" x="310.75" y="796.104">нет</text><text fill="#000000" font-family="sans-serif" font-size="11" lengthAdjust="spacing" textLength="235" x="189.25" y="777.7017">Новый запрос на медицинские услуги?</text><text fill="#000000" font-family="sans-serif" font-size="11" lengthAdjust="spacing" textLength="16" x="436.25" y="771.2993">да</text><ellipse cx="643.5" cy="707.3271" fill="none" rx="10" ry="10" style="stroke:#222222;stroke-width:1.5;"/><line style="stroke:#222222;stroke-width:2.5;" x1="637.3128" x2="649.6872" y1="701.14" y2="713.5143"/><line style="stroke:#222222;stroke-width:2.5;" x1="649.6872" x2="637.3128" y1="701.14" y2="713.5143"/><polygon fill="#F1F1F1" points="526,648.9248,761,648.9248,773,660.9248,761,672.9248,526,672.9248,514,660.9248,526,648.9248" style="stroke:#181818;stroke-width:0.5;"/><text fill="#000000" font-family="sans-serif" font-size="11" lengthAdjust="spacing" textLength="22" x="647.5" y="683.1353">нет</text><text fill="#000000" font-family="sans-serif" font-size="11" lengthAdjust="spacing" textLength="235" x="526" y="664.7329">Новый запрос на медицинские услуги?</text><text fill="#000000" font-family="sans-serif" font-size="11" lengthAdjust="spacing" textLength="16" x="773" y="658.3306">да</text><line style="stroke:#000000;stroke-width:1.5;" x1="15" x2="15" y1="12.7451" y2="938.6982"/><rect fill="#C2F0FF" height="925.9531" style="stroke:#C2F0FF;stroke-width:1.0;" width="911.25" x="804" y="12.7451"/><polygon fill="#F1F1F1" points="1336.75,146.6357,1498.75,146.6357,1510.75,158.6357,1498.75,170.6357,1336.75,170.6357,1324.75,158.6357,1336.75,146.6357" style="stroke:#181818;stroke-width:0.5;"/><text fill="#000000" font-family="sans-serif" font-size="11" lengthAdjust="spacing" textLength="22" x="1421.75" y="180.8462">нет</text><text fill="#000000" font-family="sans-serif" font-size="11" lengthAdjust="spacing" textLength="162" x="1336.75" y="162.4438">Администратор свободен?</text><text fill="#000000" font-family="sans-serif" font-size="11" lengthAdjust="spacing" textLength="16" x="1510.75" y="156.0415">да</text><polygon fill="#F1F1F1" points="1417.75,447.3779,1429.75,459.3779,1417.75,471.3779,1405.75,459.3779,1417.75,447.3779" style="stroke:#181818;stroke-width:0.5;"/><rect fill="#F1F1F1" height="47.9375" rx="12.5" ry="12.5" style="stroke:#181818;stroke-width:0.5;" width="428" x="1203.75" y="535.3779"/><text fill="#000000" font-family="sans-serif" font-size="12" lengthAdjust="spacing" textLength="408" x="1213.75" y="556.5166">Определение перечня услуг, их доступности и исполнителей.</text><text fill="#000000" font-family="sans-serif" font-size="12" lengthAdjust="spacing" textLength="180" x="1213.75" y="570.4854">согласно запросу пациента</text><polygon fill="#F1F1F1" points="1187.25,603.3154,1648.25,603.3154,1660.25,616.1201,1648.25,628.9248,1187.25,628.9248,1175.25,616.1201,1187.25,603.3154" style="stroke:#181818;stroke-width:0.5;"/><text fill="#000000" font-family="sans-serif" font-size="11" lengthAdjust="spacing" textLength="461" x="1187.25" y="613.5259">Перечень доступных услуг (их дата/время, состав, последовательность) и</text><text fill="#000000" font-family="sans-serif" font-size="11" lengthAdjust="spacing" textLength="300" x="1191.25" y="626.3306">исполнителей полностью соответствует запросу</text><text fill="#000000" font-family="sans-serif" font-size="11" lengthAdjust="spacing" textLength="16" x="1159.25" y="613.5259">да</text><text fill="#000000" font-family="sans-serif" font-size="11" lengthAdjust="spacing" textLength="22" x="1660.25" y="613.5259">нет</text><rect fill="#F1F1F1" height="33.9688" rx="12.5" ry="12.5" style="stroke:#181818;stroke-width:0.5;" width="221" x="1054.75" y="648.9248"/><text fill="#000000" font-family="sans-serif" font-size="12" lengthAdjust="spacing" textLength="201" x="1064.75" y="670.0635">Определение стоимости услуг</text><rect fill="#F1F1F1" height="33.9688" rx="12.5" ry="12.5" style="stroke:#181818;stroke-width:0.5;" width="374" x="810" y="761.8936"/><text fill="#000000" font-family="sans-serif" font-size="12" lengthAdjust="spacing" textLength="354" x="820" y="783.0322">Регистрация согласованного перечня услуг в журнале</text><ellipse cx="997" cy="841.8623" fill="none" rx="11" ry="11" style="stroke:#222222;stroke-width:1.0;"/><ellipse cx="997" cy="841.8623" fill="#222222" rx="6" ry="6" style="stroke:#111111;stroke-width:1.0;"/><polygon fill="#F1F1F1" points="1417.75,870.6982,1429.75,882.6982,1417.75,894.6982,1405.75,882.6982,1417.75,870.6982" style="stroke:#181818;stroke-width:0.5;"/><polygon fill="#F1F1F1" points="1417.75,491.3779,1429.75,503.3779,1417.75,515.3779,1405.75,503.3779,1417.75,491.3779" style="stroke:#181818;stroke-width:0.5;"/><polygon fill="#F1F1F1" points="1276.25,914.6982,1559.25,914.6982,1571.25,926.6982,1559.25,938.6982,1276.25,938.6982,1264.25,926.6982,1276.25,914.6982" style="stroke:#181818;stroke-width:0.5;"/><text fill="#000000" font-family="sans-serif" font-size="11" lengthAdjust="spacing" textLength="283" x="1276.25" y="930.5063">Получен новый запрос на медицинские услуги</text><text fill="#000000" font-family="sans-serif" font-size="11" lengthAdjust="spacing" textLength="16" x="1571.25" y="924.104">да</text><line style="stroke:#000000;stroke-width:1.5;" x1="804" x2="804" y1="12.7451" y2="938.6982"/><line style="stroke:#000000;stroke-width:1.5;" x1="1715.25" x2="1715.25" y1="12.7451" y2="938.6982"/><line style="stroke:#181818;stroke-width:1.0;" x1="391" x2="391" y1="58.6982" y2="78.6982"/><polygon fill="#181818" points="387,68.6982,391,78.6982,395,68.6982,391,72.6982" style="stroke:#181818;stroke-width:1.0;"/><line style="stroke:#181818;stroke-width:1.0;" x1="391" x2="391" y1="219.0381" y2="243.4404"/><polygon fill="#181818" points="387,233.4404,391,243.4404,395,233.4404,391,237.4404" style="stroke:#181818;stroke-width:1.0;"/><line style="stroke:#181818;stroke-width:1.0;" x1="529" x2="541" y1="207.0381" y2="207.0381"/><polygon fill="#181818" points="537,240.4404,541,250.4404,545,240.4404,541,244.4404" style="stroke:#181818;stroke-width:1.0;"/><line style="stroke:#181818;stroke-width:1.0;" x1="541" x2="541" y1="207.0381" y2="285.4404"/><line style="stroke:#181818;stroke-width:1.0;" x1="541" x2="391" y1="285.4404" y2="285.4404"/><line style="stroke:#181818;stroke-width:1.0;" x1="391" x2="391" y1="285.4404" y2="305.4404"/><polygon fill="#181818" points="387,295.4404,391,305.4404,395,295.4404,391,299.4404" style="stroke:#181818;stroke-width:1.0;"/><line style="stroke:#181818;stroke-width:1.0;" x1="297" x2="287" y1="371.4092" y2="371.4092"/><line style="stroke:#181818;stroke-width:1.0;" x1="287" x2="287" y1="371.4092" y2="393.4092"/><polygon fill="#181818" points="283,383.4092,287,393.4092,291,383.4092,287,387.4092" style="stroke:#181818;stroke-width:1.0;"/><line style="stroke:#181818;stroke-width:1.0;" x1="485" x2="495" y1="371.4092" y2="371.4092"/><line style="stroke:#181818;stroke-width:1.0;" x1="495" x2="495" y1="371.4092" y2="393.4092"/><polygon fill="#181818" points="491,383.4092,495,393.4092,499,383.4092,495,387.4092" style="stroke:#181818;stroke-width:1.0;"/><line style="stroke:#181818;stroke-width:1.0;" x1="287" x2="287" y1="427.3779" y2="435.1768"/><line style="stroke:#181818;stroke-width:1.0;" x1="287" x2="1417.75" y1="435.1768" y2="435.1768"/><line style="stroke:#181818;stroke-width:1.0;" x1="1417.75" x2="1417.75" y1="435.1768" y2="447.3779"/><polygon fill="#181818" points="1413.75,437.3779,1417.75,447.3779,1421.75,437.3779,1417.75,441.3779" style="stroke:#181818;stroke-width:1.0;"/><line style="stroke:#181818;stroke-width:1.0;" x1="391" x2="391" y1="339.4092" y2="359.4092"/><polygon fill="#181818" points="387,349.4092,391,359.4092,395,349.4092,391,353.4092" style="stroke:#181818;stroke-width:1.0;"/><line style="stroke:#181818;stroke-width:1.0;" x1="306.75" x2="306.75" y1="785.8936" y2="810.2959"/><polygon fill="#181818" points="302.75,800.2959,306.75,810.2959,310.75,800.2959,306.75,804.2959" style="stroke:#181818;stroke-width:1.0;"/><line style="stroke:#181818;stroke-width:1.0;" x1="436.25" x2="448.25" y1="773.8936" y2="773.8936"/><polygon fill="#181818" points="444.25,826.2959,448.25,836.2959,452.25,826.2959,448.25,830.2959" style="stroke:#181818;stroke-width:1.0;"/><line style="stroke:#181818;stroke-width:1.0;" x1="448.25" x2="448.25" y1="773.8936" y2="882.6982"/><line style="stroke:#181818;stroke-width:1.0;" x1="448.25" x2="1405.75" y1="882.6982" y2="882.6982"/><polygon fill="#181818" points="1395.75,878.6982,1405.75,882.6982,1395.75,886.6982,1399.75,882.6982" style="stroke:#181818;stroke-width:1.0;"/><line style="stroke:#181818;stroke-width:1.0;" x1="241" x2="306.75" y1="729.8936" y2="729.8936"/><line style="stroke:#181818;stroke-width:1.0;" x1="306.75" x2="306.75" y1="729.8936" y2="761.8936"/><polygon fill="#181818" points="302.75,751.8936,306.75,761.8936,310.75,751.8936,306.75,755.8936" style="stroke:#181818;stroke-width:1.0;"/><line style="stroke:#181818;stroke-width:1.0;" x1="643.5" x2="643.5" y1="672.9248" y2="697.3271"/><polygon fill="#181818" points="639.5,687.3271,643.5,697.3271,647.5,687.3271,643.5,691.3271" style="stroke:#181818;stroke-width:1.0;"/><line style="stroke:#181818;stroke-width:1.0;" x1="773" x2="785" y1="660.9248" y2="660.9248"/><polygon fill="#181818" points="781,760.8115,785,770.8115,789,760.8115,785,764.8115" style="stroke:#181818;stroke-width:1.0;"/><line style="stroke:#181818;stroke-width:1.0;" x1="785" x2="785" y1="660.9248" y2="865.6982"/><line style="stroke:#181818;stroke-width:1.0;" x1="785" x2="1447.75" y1="865.6982" y2="865.6982"/><line style="stroke:#181818;stroke-width:1.0;" x1="1447.75" x2="1447.75" y1="865.6982" y2="882.6982"/><line style="stroke:#181818;stroke-width:1.0;" x1="1447.75" x2="1429.75" y1="882.6982" y2="882.6982"/><polygon fill="#181818" points="1439.75,878.6982,1429.75,882.6982,1439.75,886.6982,1435.75,882.6982" style="stroke:#181818;stroke-width:1.0;"/><line style="stroke:#181818;stroke-width:1.0;" x1="1510.75" x2="1577.75" y1="158.6357" y2="158.6357"/><polygon fill="#181818" points="1573.75,300.0068,1577.75,310.0068,1581.75,300.0068,1577.75,304.0068" style="stroke:#181818;stroke-width:1.0;"/><line style="stroke:#181818;stroke-width:1.0;" x1="1577.75" x2="1577.75" y1="158.6357" y2="459.3779"/><line style="stroke:#181818;stroke-width:1.0;" x1="1577.75" x2="1429.75" y1="459.3779" y2="459.3779"/><polygon fill="#181818" points="1439.75,455.3779,1429.75,459.3779,1439.75,463.3779,1435.75,459.3779" style="stroke:#181818;stroke-width:1.0;"/><line style="stroke:#181818;stroke-width:1.0;" x1="997" x2="997" y1="795.8623" y2="830.8623"/><polygon fill="#181818" points="993,820.8623,997,830.8623,1001,820.8623,997,824.8623" style="stroke:#181818;stroke-width:1.0;"/><line style="stroke:#181818;stroke-width:1.0;" x1="1175.25" x2="1165.25" y1="616.1201" y2="616.1201"/><line style="stroke:#181818;stroke-width:1.0;" x1="1165.25" x2="1165.25" y1="616.1201" y2="648.9248"/><polygon fill="#181818" points="1161.25,638.9248,1165.25,648.9248,1169.25,638.9248,1165.25,642.9248" style="stroke:#181818;stroke-width:1.0;"/><line style="stroke:#181818;stroke-width:1.0;" x1="1417.75" x2="1417.75" y1="583.3154" y2="603.3154"/><polygon fill="#181818" points="1413.75,593.3154,1417.75,603.3154,1421.75,593.3154,1417.75,597.3154" style="stroke:#181818;stroke-width:1.0;"/><line style="stroke:#181818;stroke-width:1.0;" x1="1417.75" x2="1417.75" y1="515.3779" y2="535.3779"/><polygon fill="#181818" points="1413.75,525.3779,1417.75,535.3779,1421.75,525.3779,1417.75,529.3779" style="stroke:#181818;stroke-width:1.0;"/><line style="stroke:#181818;stroke-width:1.0;" x1="1571.25" x2="1696.25" y1="926.6982" y2="926.6982"/><polygon fill="#181818" points="1692.25,725.5381,1696.25,715.5381,1700.25,725.5381,1696.25,721.5381" style="stroke:#181818;stroke-width:1.0;"/><line style="stroke:#181818;stroke-width:1.0;" x1="1696.25" x2="1696.25" y1="503.3779" y2="926.6982"/><line style="stroke:#181818;stroke-width:1.0;" x1="1696.25" x2="1429.75" y1="503.3779" y2="503.3779"/><polygon fill="#181818" points="1439.75,499.3779,1429.75,503.3779,1439.75,507.3779,1435.75,503.3779" style="stroke:#181818;stroke-width:1.0;"/><line style="stroke:#181818;stroke-width:1.0;" x1="1417.75" x2="1417.75" y1="894.6982" y2="914.6982"/><polygon fill="#181818" points="1413.75,904.6982,1417.75,914.6982,1421.75,904.6982,1417.75,908.6982" style="stroke:#181818;stroke-width:1.0;"/><line style="stroke:#181818;stroke-width:1.0;" x1="1417.75" x2="1417.75" y1="471.3779" y2="491.3779"/><polygon fill="#181818" points="1413.75,481.3779,1417.75,491.3779,1421.75,481.3779,1417.75,485.3779" style="stroke:#181818;stroke-width:1.0;"/><line style="stroke:#181818;stroke-width:1.0;" x1="1417.75" x2="1417.75" y1="170.6357" y2="182.8369"/><line style="stroke:#181818;stroke-width:1.0;" x1="1417.75" x2="391" y1="182.8369" y2="182.8369"/><line style="stroke:#181818;stroke-width:1.0;" x1="391" x2="391" y1="182.8369" y2="195.0381"/><polygon fill="#181818" points="387,185.0381,391,195.0381,395,185.0381,391,189.0381" style="stroke:#181818;stroke-width:1.0;"/><line style="stroke:#181818;stroke-width:1.0;" x1="391" x2="391" y1="126.6357" y2="131.6357"/><line style="stroke:#181818;stroke-width:1.0;" x1="391" x2="1417.75" y1="131.6357" y2="131.6357"/><line style="stroke:#181818;stroke-width:1.0;" x1="1417.75" x2="1417.75" y1="131.6357" y2="146.6357"/><polygon fill="#181818" points="1413.75,136.6357,1417.75,146.6357,1421.75,136.6357,1417.75,140.6357" style="stroke:#181818;stroke-width:1.0;"/><line style="stroke:#181818;stroke-width:1.0;" x1="36" x2="24" y1="729.8936" y2="729.8936"/><line style="stroke:#181818;stroke-width:1.0;" x1="24" x2="24" y1="729.8936" y2="747.8936"/><line style="stroke:#181818;stroke-width:1.0;" x1="24" x2="997" y1="747.8936" y2="747.8936"/><line style="stroke:#181818;stroke-width:1.0;" x1="997" x2="997" y1="747.8936" y2="761.8936"/><polygon fill="#181818" points="993,751.8936,997,761.8936,1001,751.8936,997,755.8936" style="stroke:#181818;stroke-width:1.0;"/><line style="stroke:#181818;stroke-width:1.0;" x1="1165.25" x2="1165.25" y1="682.8936" y2="700.3936"/><line style="stroke:#181818;stroke-width:1.0;" x1="1165.25" x2="138.5" y1="700.3936" y2="700.3936"/><line style="stroke:#181818;stroke-width:1.0;" x1="138.5" x2="138.5" y1="700.3936" y2="717.8936"/><polygon fill="#181818" points="134.5,707.8936,138.5,717.8936,142.5,707.8936,138.5,711.8936" style="stroke:#181818;stroke-width:1.0;"/><line style="stroke:#181818;stroke-width:1.0;" x1="1660.25" x2="1672.25" y1="616.1201" y2="616.1201"/><line style="stroke:#181818;stroke-width:1.0;" x1="1672.25" x2="1672.25" y1="616.1201" y2="635.3271"/><line style="stroke:#181818;stroke-width:1.0;" x1="1672.25" x2="643.5" y1="635.3271" y2="635.3271"/><line style="stroke:#181818;stroke-width:1.0;" x1="643.5" x2="643.5" y1="635.3271" y2="648.9248"/><polygon fill="#181818" points="639.5,638.9248,643.5,648.9248,647.5,638.9248,643.5,642.9248" style="stroke:#181818;stroke-width:1.0;"/><text fill="#000000" font-family="sans-serif" font-size="18" lengthAdjust="spacing" textLength="84" x="367.5" y="29.4531">Пациент</text><text fill="#000000" font-family="sans-serif" font-size="18" lengthAdjust="spacing" textLength="153" x="1183.125" y="29.4531">Администратор</text><!--MD5=[04d9d04174e9577e3e8ddd4f8220da5d]
@startuml
|Пациент|
start
:Обращение на стойку Администратора 
или звонок на контактный телефон клиники;

|#APPLICATION|Администратор|
if (Администратор свободен?) then (да)
else (нет)
 |Пациент|
  if (Готов ли ждать пациент своей очереди?) then (да)
  else (нет)
   end;
  endif;
  :ожидание своей очереди;
 if (Дождался своей очереди?) then (да)
  :Запрос на медицинские услуги;
 else (нет) 
  end;
 endif;
endif;

|Администратор|
repeat
 :Определение перечня услуг, их доступности и исполнителей. 
согласно запросу пациента;

if (Перечень доступных услуг (их дата/время, состав, последовательность) и
 исполнителей полностью соответствует запросу) then (да)
 :Определение стоимости услуг;
 |Пациент|
 if (Стоимость услуг устраивает?) then (да)
  |Администратор|
  :Регистрация согласованного перечня услуг в журнале;
  stop
 |Пациент|
 else (нет)  
  if (Новый запрос на медицинские услуги?) then (да)
  else (нет)
   end;
  endif;
 endif;
 else (нет)
  if (Новый запрос на медицинские услуги?) then (да)
  else (нет)
   end;
  endif;
 |Администратор|
endif;

repeat while (Получен новый запрос на медицинские услуги) is (да)
@enduml

PlantUML version 1.2022.8beta2(Unknown compile time)
(GPL source distribution)
Java Runtime: Java(TM) SE Runtime Environment
JVM: Java HotSpot(TM) 64-Bit Server VM
Default Encoding: UTF-8
Language: en
Country: US
--></g></svg>