<?xml version="1.0" encoding="UTF-8" standalone="no"?><svg xmlns="http://www.w3.org/2000/svg" xmlns:xlink="http://www.w3.org/1999/xlink" contentStyleType="text/css" height="778px" preserveAspectRatio="none" style="width:1862px;height:778px;background:#FFFFFF;" version="1.1" viewBox="0 0 1862 778" width="1862px" zoomAndPan="magnify"><defs/><g><ellipse cx="593.5" cy="48.6982" fill="#222222" rx="10" ry="10" style="stroke:#222222;stroke-width:1.0;"/><rect fill="#F1F1F1" height="47.9375" rx="12.5" ry="12.5" style="stroke:#181818;stroke-width:0.5;" width="351" x="418" y="78.6982"/><text fill="#000000" font-family="sans-serif" font-size="12" lengthAdjust="spacing" textLength="331" x="428" y="99.8369">Запрос на медицинские услуги через интерфрейс</text><text fill="#000000" font-family="sans-serif" font-size="12" lengthAdjust="spacing" textLength="229" x="428" y="113.8057">сайта или мобильного приложения</text><polygon fill="#F1F1F1" points="437,258.5732,750,258.5732,762,270.5732,750,282.5732,437,282.5732,425,270.5732,437,258.5732" style="stroke:#181818;stroke-width:0.5;"/><text fill="#000000" font-family="sans-serif" font-size="11" lengthAdjust="spacing" textLength="313" x="437" y="274.3813">Перечень доступных услуг соответствует запросу</text><text fill="#000000" font-family="sans-serif" font-size="11" lengthAdjust="spacing" textLength="16" x="409" y="267.979">да</text><text fill="#000000" font-family="sans-serif" font-size="11" lengthAdjust="spacing" textLength="22" x="762" y="267.979">нет</text><rect fill="#F1F1F1" height="33.9688" rx="12.5" ry="12.5" style="stroke:#181818;stroke-width:0.5;" width="258" x="223" y="302.5732"/><text fill="#000000" font-family="sans-serif" font-size="12" lengthAdjust="spacing" textLength="238" x="233" y="323.7119">Выбор услуг из найденного перечня</text><polygon fill="#F1F1F1" points="225,425.5107,479,425.5107,491,437.5107,479,449.5107,225,449.5107,213,437.5107,225,425.5107" style="stroke:#181818;stroke-width:0.5;"/><text fill="#000000" font-family="sans-serif" font-size="11" lengthAdjust="spacing" textLength="254" x="225" y="441.3188">Перечень и стоимость услуг устраивает?</text><text fill="#000000" font-family="sans-serif" font-size="11" lengthAdjust="spacing" textLength="16" x="197" y="434.9165">да</text><text fill="#000000" font-family="sans-serif" font-size="11" lengthAdjust="spacing" textLength="22" x="491" y="434.9165">нет</text><polygon fill="#F1F1F1" points="42,618.8662,298,618.8662,310,630.8662,298,642.8662,42,642.8662,30,630.8662,42,618.8662" style="stroke:#181818;stroke-width:0.5;"/><text fill="#000000" font-family="sans-serif" font-size="11" lengthAdjust="spacing" textLength="16" x="174" y="653.0767">да</text><text fill="#000000" font-family="sans-serif" font-size="11" lengthAdjust="spacing" textLength="256" x="42" y="634.6743">Нужен дополнительный поиск в системе?</text><text fill="#000000" font-family="sans-serif" font-size="11" lengthAdjust="spacing" textLength="22" x="310" y="628.272">нет</text><ellipse cx="354" cy="630.8662" fill="none" rx="11" ry="11" style="stroke:#222222;stroke-width:1.0;"/><ellipse cx="354" cy="630.8662" fill="#222222" rx="6" ry="6" style="stroke:#111111;stroke-width:1.0;"/><ellipse cx="534" cy="527.9131" fill="none" rx="10" ry="10" style="stroke:#222222;stroke-width:1.5;"/><line style="stroke:#222222;stroke-width:2.5;" x1="527.8128" x2="540.1872" y1="521.7259" y2="534.1003"/><line style="stroke:#222222;stroke-width:2.5;" x1="540.1872" x2="527.8128" y1="521.7259" y2="534.1003"/><polygon fill="#F1F1F1" points="416.5,469.5107,651.5,469.5107,663.5,481.5107,651.5,493.5107,416.5,493.5107,404.5,481.5107,416.5,469.5107" style="stroke:#181818;stroke-width:0.5;"/><text fill="#000000" font-family="sans-serif" font-size="11" lengthAdjust="spacing" textLength="22" x="538" y="503.7212">нет</text><text fill="#000000" font-family="sans-serif" font-size="11" lengthAdjust="spacing" textLength="235" x="416.5" y="485.3188">Новый запрос на медицинские услуги?</text><text fill="#000000" font-family="sans-serif" font-size="11" lengthAdjust="spacing" textLength="16" x="663.5" y="478.9165">да</text><polygon fill="#F1F1F1" points="352,664.5767,364,676.5767,352,688.5767,340,676.5767,352,664.5767" style="stroke:#181818;stroke-width:0.5;"/><ellipse cx="835" cy="360.9756" fill="none" rx="10" ry="10" style="stroke:#222222;stroke-width:1.5;"/><line style="stroke:#222222;stroke-width:2.5;" x1="828.8128" x2="841.1872" y1="354.7884" y2="367.1628"/><line style="stroke:#222222;stroke-width:2.5;" x1="841.1872" x2="828.8128" y1="354.7884" y2="367.1628"/><polygon fill="#F1F1F1" points="717.5,302.5732,952.5,302.5732,964.5,314.5732,952.5,326.5732,717.5,326.5732,705.5,314.5732,717.5,302.5732" style="stroke:#181818;stroke-width:0.5;"/><text fill="#000000" font-family="sans-serif" font-size="11" lengthAdjust="spacing" textLength="22" x="839" y="336.7837">нет</text><text fill="#000000" font-family="sans-serif" font-size="11" lengthAdjust="spacing" textLength="235" x="717.5" y="318.3813">Новый запрос на медицинские услуги?</text><text fill="#000000" font-family="sans-serif" font-size="11" lengthAdjust="spacing" textLength="16" x="964.5" y="311.979">да</text><polygon fill="#F1F1F1" points="593.5,698.5767,605.5,710.5767,593.5,722.5767,581.5,710.5767,593.5,698.5767" style="stroke:#181818;stroke-width:0.5;"/><line style="stroke:#000000;stroke-width:1.5;" x1="15" x2="15" y1="12.7451" y2="766.5767"/><rect fill="#C2F0FF" height="753.8315" style="stroke:#C2F0FF;stroke-width:1.0;" width="846.5" x="995.5" y="12.7451"/><rect fill="#F1F1F1" height="47.9375" rx="12.5" ry="12.5" style="stroke:#181818;stroke-width:0.5;" width="314" x="1482.5" y="190.6357"/><text fill="#000000" font-family="sans-serif" font-size="12" lengthAdjust="spacing" textLength="294" x="1492.5" y="211.7744">Определение перечня услуг и исполнителей</text><text fill="#000000" font-family="sans-serif" font-size="12" lengthAdjust="spacing" textLength="180" x="1492.5" y="225.7432">согласно запросу пациента</text><rect fill="#F1F1F1" height="33.9688" rx="12.5" ry="12.5" style="stroke:#181818;stroke-width:0.5;" width="221" x="1287.5" y="371.542"/><text fill="#000000" font-family="sans-serif" font-size="12" lengthAdjust="spacing" textLength="201" x="1297.5" y="392.6807">Определение стоимости услуг</text><rect fill="#F1F1F1" height="33.9688" rx="12.5" ry="12.5" style="stroke:#181818;stroke-width:0.5;" width="369" x="1031.5" y="469.5107"/><text fill="#000000" font-family="sans-serif" font-size="12" lengthAdjust="spacing" textLength="349" x="1041.5" y="490.6494">Регистрация перечня выбранных услуг в базе данных</text><rect fill="#F1F1F1" height="47.9375" rx="12.5" ry="12.5" style="stroke:#181818;stroke-width:0.5;" width="429" x="1001.5" y="538.4795"/><text fill="#000000" font-family="sans-serif" font-size="12" lengthAdjust="spacing" textLength="409" x="1011.5" y="559.6182">Уведомление пользователя о произведенной записи согласно</text><text fill="#000000" font-family="sans-serif" font-size="12" lengthAdjust="spacing" textLength="380" x="1011.5" y="573.5869">настройкам по способу и времени доставки уведомлений</text><polygon fill="#F1F1F1" points="1639.5,146.6357,1651.5,158.6357,1639.5,170.6357,1627.5,158.6357,1639.5,146.6357" style="stroke:#181818;stroke-width:0.5;"/><polygon fill="#F1F1F1" points="1498,742.5767,1781,742.5767,1793,754.5767,1781,766.5767,1498,766.5767,1486,754.5767,1498,742.5767" style="stroke:#181818;stroke-width:0.5;"/><text fill="#000000" font-family="sans-serif" font-size="11" lengthAdjust="spacing" textLength="283" x="1498" y="758.3848">Получен новый запрос на медицинские услуги</text><text fill="#000000" font-family="sans-serif" font-size="11" lengthAdjust="spacing" textLength="16" x="1793" y="751.9824">да</text><line style="stroke:#000000;stroke-width:1.5;" x1="995.5" x2="995.5" y1="12.7451" y2="766.5767"/><line style="stroke:#000000;stroke-width:1.5;" x1="1842" x2="1842" y1="12.7451" y2="766.5767"/><line style="stroke:#181818;stroke-width:1.0;" x1="593.5" x2="593.5" y1="58.6982" y2="78.6982"/><polygon fill="#181818" points="589.5,68.6982,593.5,78.6982,597.5,68.6982,593.5,72.6982" style="stroke:#181818;stroke-width:1.0;"/><line style="stroke:#181818;stroke-width:1.0;" x1="170" x2="170" y1="642.8662" y2="676.5767"/><line style="stroke:#181818;stroke-width:1.0;" x1="170" x2="340" y1="676.5767" y2="676.5767"/><polygon fill="#181818" points="330,672.5767,340,676.5767,330,680.5767,334,676.5767" style="stroke:#181818;stroke-width:1.0;"/><line style="stroke:#181818;stroke-width:1.0;" x1="310" x2="343" y1="630.8662" y2="630.8662"/><polygon fill="#181818" points="333,626.8662,343,630.8662,333,634.8662,337,630.8662" style="stroke:#181818;stroke-width:1.0;"/><line style="stroke:#181818;stroke-width:1.0;" x1="534" x2="534" y1="493.5107" y2="517.9131"/><polygon fill="#181818" points="530,507.9131,534,517.9131,538,507.9131,534,511.9131" style="stroke:#181818;stroke-width:1.0;"/><line style="stroke:#181818;stroke-width:1.0;" x1="663.5" x2="675.5" y1="481.5107" y2="481.5107"/><polygon fill="#181818" points="671.5,588.8662,675.5,598.8662,679.5,588.8662,675.5,592.8662" style="stroke:#181818;stroke-width:1.0;"/><line style="stroke:#181818;stroke-width:1.0;" x1="675.5" x2="675.5" y1="481.5107" y2="676.5767"/><line style="stroke:#181818;stroke-width:1.0;" x1="675.5" x2="364" y1="676.5767" y2="676.5767"/><polygon fill="#181818" points="374,672.5767,364,676.5767,374,680.5767,370,676.5767" style="stroke:#181818;stroke-width:1.0;"/><line style="stroke:#181818;stroke-width:1.0;" x1="491" x2="534" y1="437.5107" y2="437.5107"/><line style="stroke:#181818;stroke-width:1.0;" x1="534" x2="534" y1="437.5107" y2="469.5107"/><polygon fill="#181818" points="530,459.5107,534,469.5107,538,459.5107,534,463.5107" style="stroke:#181818;stroke-width:1.0;"/><line style="stroke:#181818;stroke-width:1.0;" x1="835" x2="835" y1="326.5732" y2="350.9756"/><polygon fill="#181818" points="831,340.9756,835,350.9756,839,340.9756,835,344.9756" style="stroke:#181818;stroke-width:1.0;"/><line style="stroke:#181818;stroke-width:1.0;" x1="964.5" x2="976.5" y1="314.5732" y2="314.5732"/><polygon fill="#181818" points="972.5,514.8975,976.5,524.8975,980.5,514.8975,976.5,518.8975" style="stroke:#181818;stroke-width:1.0;"/><line style="stroke:#181818;stroke-width:1.0;" x1="976.5" x2="976.5" y1="314.5732" y2="710.5767"/><line style="stroke:#181818;stroke-width:1.0;" x1="976.5" x2="605.5" y1="710.5767" y2="710.5767"/><polygon fill="#181818" points="615.5,706.5767,605.5,710.5767,615.5,714.5767,611.5,710.5767" style="stroke:#181818;stroke-width:1.0;"/><line style="stroke:#181818;stroke-width:1.0;" x1="425" x2="352" y1="270.5732" y2="270.5732"/><line style="stroke:#181818;stroke-width:1.0;" x1="352" x2="352" y1="270.5732" y2="302.5732"/><polygon fill="#181818" points="348,292.5732,352,302.5732,356,292.5732,352,296.5732" style="stroke:#181818;stroke-width:1.0;"/><line style="stroke:#181818;stroke-width:1.0;" x1="762" x2="835" y1="270.5732" y2="270.5732"/><line style="stroke:#181818;stroke-width:1.0;" x1="835" x2="835" y1="270.5732" y2="302.5732"/><polygon fill="#181818" points="831,292.5732,835,302.5732,839,292.5732,835,296.5732" style="stroke:#181818;stroke-width:1.0;"/><line style="stroke:#181818;stroke-width:1.0;" x1="352" x2="352" y1="688.5767" y2="710.5767"/><line style="stroke:#181818;stroke-width:1.0;" x1="352" x2="581.5" y1="710.5767" y2="710.5767"/><polygon fill="#181818" points="571.5,706.5767,581.5,710.5767,571.5,714.5767,575.5,710.5767" style="stroke:#181818;stroke-width:1.0;"/><line style="stroke:#181818;stroke-width:1.0;" x1="1216" x2="1216" y1="503.4795" y2="538.4795"/><polygon fill="#181818" points="1212,528.4795,1216,538.4795,1220,528.4795,1216,532.4795" style="stroke:#181818;stroke-width:1.0;"/><line style="stroke:#181818;stroke-width:1.0;" x1="1639.5" x2="1639.5" y1="170.6357" y2="190.6357"/><polygon fill="#181818" points="1635.5,180.6357,1639.5,190.6357,1643.5,180.6357,1639.5,184.6357" style="stroke:#181818;stroke-width:1.0;"/><line style="stroke:#181818;stroke-width:1.0;" x1="1793" x2="1823" y1="754.5767" y2="754.5767"/><polygon fill="#181818" points="1819,471.4287,1823,461.4287,1827,471.4287,1823,467.4287" style="stroke:#181818;stroke-width:1.0;"/><line style="stroke:#181818;stroke-width:1.0;" x1="1823" x2="1823" y1="158.6357" y2="754.5767"/><line style="stroke:#181818;stroke-width:1.0;" x1="1823" x2="1651.5" y1="158.6357" y2="158.6357"/><polygon fill="#181818" points="1661.5,154.6357,1651.5,158.6357,1661.5,162.6357,1657.5,158.6357" style="stroke:#181818;stroke-width:1.0;"/><line style="stroke:#181818;stroke-width:1.0;" x1="352" x2="352" y1="336.542" y2="354.042"/><line style="stroke:#181818;stroke-width:1.0;" x1="352" x2="1398" y1="354.042" y2="354.042"/><line style="stroke:#181818;stroke-width:1.0;" x1="1398" x2="1398" y1="354.042" y2="371.542"/><polygon fill="#181818" points="1394,361.542,1398,371.542,1402,361.542,1398,365.542" style="stroke:#181818;stroke-width:1.0;"/><line style="stroke:#181818;stroke-width:1.0;" x1="1216" x2="1216" y1="586.417" y2="603.8662"/><line style="stroke:#181818;stroke-width:1.0;" x1="1216" x2="170" y1="603.8662" y2="603.8662"/><line style="stroke:#181818;stroke-width:1.0;" x1="170" x2="170" y1="603.8662" y2="618.8662"/><polygon fill="#181818" points="166,608.8662,170,618.8662,174,608.8662,170,612.8662" style="stroke:#181818;stroke-width:1.0;"/><line style="stroke:#181818;stroke-width:1.0;" x1="213" x2="201" y1="437.5107" y2="437.5107"/><line style="stroke:#181818;stroke-width:1.0;" x1="201" x2="201" y1="437.5107" y2="455.5107"/><line style="stroke:#181818;stroke-width:1.0;" x1="201" x2="1216" y1="455.5107" y2="455.5107"/><line style="stroke:#181818;stroke-width:1.0;" x1="1216" x2="1216" y1="455.5107" y2="469.5107"/><polygon fill="#181818" points="1212,459.5107,1216,469.5107,1220,459.5107,1216,463.5107" style="stroke:#181818;stroke-width:1.0;"/><line style="stroke:#181818;stroke-width:1.0;" x1="1398" x2="1398" y1="405.5107" y2="410.5107"/><line style="stroke:#181818;stroke-width:1.0;" x1="1398" x2="352" y1="410.5107" y2="410.5107"/><line style="stroke:#181818;stroke-width:1.0;" x1="352" x2="352" y1="410.5107" y2="425.5107"/><polygon fill="#181818" points="348,415.5107,352,425.5107,356,415.5107,352,419.5107" style="stroke:#181818;stroke-width:1.0;"/><line style="stroke:#181818;stroke-width:1.0;" x1="1639.5" x2="1639.5" y1="238.5732" y2="243.5732"/><line style="stroke:#181818;stroke-width:1.0;" x1="1639.5" x2="593.5" y1="243.5732" y2="243.5732"/><line style="stroke:#181818;stroke-width:1.0;" x1="593.5" x2="593.5" y1="243.5732" y2="258.5732"/><polygon fill="#181818" points="589.5,248.5732,593.5,258.5732,597.5,248.5732,593.5,252.5732" style="stroke:#181818;stroke-width:1.0;"/><line style="stroke:#181818;stroke-width:1.0;" x1="593.5" x2="593.5" y1="722.5767" y2="727.5767"/><line style="stroke:#181818;stroke-width:1.0;" x1="593.5" x2="1639.5" y1="727.5767" y2="727.5767"/><line style="stroke:#181818;stroke-width:1.0;" x1="1639.5" x2="1639.5" y1="727.5767" y2="742.5767"/><polygon fill="#181818" points="1635.5,732.5767,1639.5,742.5767,1643.5,732.5767,1639.5,736.5767" style="stroke:#181818;stroke-width:1.0;"/><line style="stroke:#181818;stroke-width:1.0;" x1="593.5" x2="593.5" y1="126.6357" y2="131.6357"/><line style="stroke:#181818;stroke-width:1.0;" x1="593.5" x2="1639.5" y1="131.6357" y2="131.6357"/><line style="stroke:#181818;stroke-width:1.0;" x1="1639.5" x2="1639.5" y1="131.6357" y2="146.6357"/><polygon fill="#181818" points="1635.5,136.6357,1639.5,146.6357,1643.5,136.6357,1639.5,140.6357" style="stroke:#181818;stroke-width:1.0;"/><text fill="#000000" font-family="sans-serif" font-size="18" lengthAdjust="spacing" textLength="84" x="463.25" y="29.4531">Пациент</text><text fill="#000000" font-family="sans-serif" font-size="18" lengthAdjust="spacing" textLength="81" x="1378.25" y="29.4531">Система</text><!--MD5=[3866303cf9d1626ed23aa2027cec79c6]
@startuml
|Пациент|
start
:Запрос на медицинские услуги через интерфрейс 
сайта или мобильного приложения;

|#APPLICATION|Система|
repeat
 :Определение перечня услуг и исполнителей 
 согласно запросу пациента;
 |Пациент|
if (Перечень доступных услуг соответствует запросу) then (да)
 :Выбор услуг из найденного перечня;
 |Система|
 :Определение стоимости услуг;
 |Пациент|
 if (Перечень и стоимость услуг устраивает?) then (да)
  |Система|
  :Регистрация перечня выбранных услуг в базе данных;
  :Уведомление пользователя о произведенной записи согласно 
настройкам по способу и времени доставки уведомлений;
  |Пациент|
  if (Нужен дополнительный поиск в системе?) then (да)
  else (нет)
  stop
  endif;
 |Пациент|
 else (нет)  
  if (Новый запрос на медицинские услуги?) then (да)
  else (нет)
   end;
  endif;
 endif;
 else (нет)
  if (Новый запрос на медицинские услуги?) then (да)
  else (нет)
   end;
  endif;
 |Система|
endif;

repeat while (Получен новый запрос на медицинские услуги) is (да)
@enduml

PlantUML version 1.2022.8beta2(Unknown compile time)
(GPL source distribution)
Java Runtime: Java(TM) SE Runtime Environment
JVM: Java HotSpot(TM) 64-Bit Server VM
Default Encoding: UTF-8
Language: en
Country: US
--></g></svg>